<svg xmlns="http://www.w3.org/2000/svg" xmlns:xlink="http://www.w3.org/1999/xlink" width="500" zoomAndPan="magnify" viewBox="0 0 375 374.999991" height="500" preserveAspectRatio="xMidYMid meet" version="1.0"><defs><clipPath id="9affa5079c"><path d="M 22.054688 37.5 L 352.945312 37.5 L 352.945312 368.390625 L 22.054688 368.390625 Z M 22.054688 37.5 " clip-rule="nonzero"/></clipPath><clipPath id="3cc776354f"><path d="M 187.5 37.5 C 96.128906 37.5 22.054688 111.574219 22.054688 202.945312 C 22.054688 294.316406 96.128906 368.390625 187.5 368.390625 C 278.871094 368.390625 352.945312 294.316406 352.945312 202.945312 C 352.945312 111.574219 278.871094 37.5 187.5 37.5 Z M 187.5 37.5 " clip-rule="nonzero"/></clipPath><clipPath id="45e97e78ef"><path d="M 172.214844 178.980469 L 297 178.980469 L 297 337.230469 L 172.214844 337.230469 Z M 172.214844 178.980469 " clip-rule="nonzero"/></clipPath><clipPath id="d34ca876b0"><path d="M 296 178.980469 L 298.214844 178.980469 L 298.214844 205 L 296 205 Z M 296 178.980469 " clip-rule="nonzero"/></clipPath><clipPath id="a31f8f5ee5"><path d="M 77.792969 96.589844 L 211 96.589844 L 211 251.839844 L 77.792969 251.839844 Z M 77.792969 96.589844 " clip-rule="nonzero"/></clipPath></defs><g clip-path="url(#9affa5079c)"><g clip-path="url(#3cc776354f)"><path fill="#ffffff" d="M 22.054688 37.5 L 352.945312 37.5 L 352.945312 368.390625 L 22.054688 368.390625 Z M 22.054688 37.5 " fill-opacity="1" fill-rule="nonzero"/></g></g><g clip-path="url(#45e97e78ef)"><path fill="#000000" d="M 262.695312 278.835938 C 268.214844 288.300781 273.652344 297.804688 279.175781 307.261719 C 280.378906 309.320312 280.835938 310.433594 281.332031 311.011719 L 267.085938 337.546875 L 264.738281 337.546875 C 264.660156 337.4375 264.585938 337.324219 264.511719 337.191406 C 253.828125 318.46875 243.078125 299.78125 232.324219 281.09375 C 227.078125 271.96875 221.796875 262.851562 216.542969 253.730469 C 216.308594 253.320312 216.1875 252.855469 215.894531 252.101562 C 216.75 252.019531 217.398438 251.902344 218.046875 251.902344 C 227.1875 251.894531 236.320312 251.945312 245.449219 251.886719 C 255.539062 251.835938 264.738281 245.328125 267.972656 236.0625 C 272.417969 223.34375 265.972656 209.976562 253.046875 205.492188 C 250.523438 204.613281 247.71875 204.140625 245.035156 204.125 C 227.121094 204 209.203125 204.015625 191.277344 204.097656 C 188.832031 204.105469 187.445312 203.417969 186.199219 201.152344 C 182.054688 193.570312 177.597656 186.164062 173.273438 178.6875 C 172.972656 178.171875 172.730469 177.605469 172.285156 176.71875 C 173.273438 176.617188 173.917969 176.492188 174.574219 176.492188 C 198.394531 176.476562 222.214844 176.371094 246.03125 176.503906 C 267.726562 176.617188 287.328125 191.113281 294.175781 211.769531 C 302.710938 237.53125 290 265.203125 264.871094 275.546875 C 264.480469 275.710938 264.105469 275.921875 263.707031 276.035156 C 262.0625 276.511719 261.824219 277.339844 262.695312 278.835938 Z M 262.695312 278.835938 " fill-opacity="1" fill-rule="nonzero"/></g><g clip-path="url(#d34ca876b0)"><path fill="#000000" d="M 296.898438 176.691406 C 341.820312 176.691406 386.671875 176.691406 432.023438 176.691406 C 430.714844 179.058594 429.640625 181.058594 428.511719 183.027344 C 424.769531 189.535156 420.964844 196.011719 417.261719 202.546875 C 416.542969 203.816406 415.570312 204.015625 414.300781 204.015625 C 404.960938 204 395.621094 204.007812 386.273438 204.007812 C 362.949219 204.007812 339.636719 203.972656 316.316406 204.03125 C 314.257812 204.039062 313.179688 203.449219 312.433594 201.46875 C 309.203125 192.882812 304.3125 185.320312 298.011719 178.660156 C 297.671875 178.304688 297.347656 177.9375 297.058594 177.539062 C 296.957031 177.390625 296.980469 177.140625 296.898438 176.691406 Z M 296.898438 176.691406 " fill-opacity="1" fill-rule="nonzero"/></g><g clip-path="url(#a31f8f5ee5)"><path fill="#000000" d="M 144.800781 153.8125 L 144.546875 135.859375 L 131.679688 135.859375 C 131.679688 135.859375 78.429688 169.605469 78.449219 169.039062 L 77.933594 251.734375 L 167.074219 251.515625 C 208.230469 251.40625 218.054688 207.648438 203.488281 186.460938 L 184.492188 198.300781 C 193.460938 210.523438 187.714844 228.421875 166.578125 228.421875 L 101.265625 228.367188 L 101.78125 182.105469 Z M 186.121094 145.359375 C 184.492188 150.664062 179.316406 155.367188 173.332031 159.523438 C 167.199219 163.769531 160.246094 167.445312 155.433594 170.574219 L 122.109375 191.929688 L 122.386719 218.683594 L 149.210938 202.015625 C 181.859375 180.367188 212.179688 170.847656 210.496094 135.183594 C 209.914062 122.539062 204.074219 110.679688 197.523438 104.769531 C 189.195312 97.230469 181.328125 96.589844 170.859375 96.589844 L 77.808594 96.589844 L 77.84375 146.585938 L 101.195312 133.574219 L 101.503906 119.445312 L 172.179688 119.445312 C 186.453125 119.445312 189.5625 134.050781 186.121094 145.359375 Z M 186.121094 145.359375 " fill-opacity="1" fill-rule="evenodd"/></g></svg>